<svg id="Layer_1" data-name="Layer 1" xmlns="http://www.w3.org/2000/svg" viewBox="0 0 59.67 59.67"><defs><style>.cls-1{fill:#fff;}</style></defs><path class="cls-1" d="M56.73,29.65A27.14,27.14,0,0,0,52,14.31a37.53,37.53,0,0,1,.25,4.21V44.6A27.12,27.12,0,0,0,56.73,29.65Z"/><path class="cls-1" d="M36.86,46.83a18.07,18.07,0,0,0,7.27-9.09V27.9H25.25q-8.7,0-12.07,3.09a10,10,0,0,0-3.37,7.66,9.87,9.87,0,0,0,4,8.24Q17.82,50,25,50A21.67,21.67,0,0,0,36.86,46.83Z"/><path class="cls-1" d="M4,30.36a15.64,15.64,0,0,1,7.32-6.18Q16.44,21.84,25,21.84H44.13V18.17q0-7.65-4.29-11.78c-2.34-2.24-5.61-3.55-9.79-4-.19,0-.38,0-.57,0A27.25,27.25,0,0,0,2.23,29.65a27.9,27.9,0,0,0,.34,4.11A16.45,16.45,0,0,1,4,30.36Z"/><path class="cls-1" d="M44.47,46.37A19.49,19.49,0,0,1,38,52.84c-3.69,2.31-8.3,3.48-13.83,3.54a28.1,28.1,0,0,0,5.3.52,27.11,27.11,0,0,0,15-4.5Z"/></svg>