<svg id="Layer_1" data-name="Layer 1" xmlns="http://www.w3.org/2000/svg" viewBox="0 0 142.44 63.56"><defs><style>.cls-1{fill:#fff;}</style></defs><path class="cls-1" d="M59.17,32.21a27.06,27.06,0,0,0-4.73-15.34,37.34,37.34,0,0,1,.25,4.2V47.16A27.09,27.09,0,0,0,59.17,32.21Z"/><path class="cls-1" d="M39.31,49.39a18.13,18.13,0,0,0,7.26-9.1V30.45H27.69c-5.79,0-9.82,1-12.06,3.09a10,10,0,0,0-3.38,7.67,9.88,9.88,0,0,0,4,8.24c2.67,2,6.41,3.09,11.22,3.09A21.69,21.69,0,0,0,39.31,49.39Z"/><path class="cls-1" d="M6.47,32.91a15.73,15.73,0,0,1,7.32-6.17q5.1-2.35,13.68-2.35h19.1V20.73q0-7.67-4.29-11.78C40,6.71,36.68,5.4,32.5,5l-.57,0A27.25,27.25,0,0,0,4.68,32.21,26.37,26.37,0,0,0,5,36.31,16.41,16.41,0,0,1,6.47,32.91Z"/><path class="cls-1" d="M46.91,48.93a19.39,19.39,0,0,1-6.46,6.47q-5.52,3.45-13.82,3.53a27,27,0,0,0,20.28-4Z"/><path class="cls-1" d="M64.89,21.56V18H84.67v3.59ZM80,50.21q-4.5,0-6.93-2.43a9.26,9.26,0,0,1-2.44-6.87v-30h4.32V40.66A6.07,6.07,0,0,0,76.36,45a5.34,5.34,0,0,0,4.11,1.52,6.91,6.91,0,0,0,4.74-1.64L86.74,48a8.13,8.13,0,0,1-3.08,1.71A12.66,12.66,0,0,1,80,50.21Z"/><path class="cls-1" d="M94.58,49.91V4.77H98.9V49.91Z"/><path class="cls-1" d="M120,50.21A15.12,15.12,0,0,1,113.72,49a9.22,9.22,0,0,1-4-3.29,8.53,8.53,0,0,1-1.4-4.83,8.87,8.87,0,0,1,1.19-4.54,8.34,8.34,0,0,1,3.89-3.28,17.66,17.66,0,0,1,7.27-1.25h11v3.22h-10.9q-4.62,0-6.41,1.65a5.55,5.55,0,0,0,.33,8.46,9.6,9.6,0,0,0,6,1.64,11.59,11.59,0,0,0,6.3-1.67,9.64,9.64,0,0,0,3.86-4.84l1,3a10.24,10.24,0,0,1-4.23,5A14,14,0,0,1,120,50.21Zm11-.3V42.85l-.18-1.15V29.89a8.28,8.28,0,0,0-2.28-6.26q-2.28-2.19-6.78-2.19a16.93,16.93,0,0,0-5.91,1,15,15,0,0,0-4.74,2.74L109.12,22A17.49,17.49,0,0,1,115,18.79a22.77,22.77,0,0,1,7.18-1.13q6.21,0,9.59,3.08t3.37,9.34V49.91Z"/></svg>